<svg width="63" height="63" viewBox="0 0 63 63" fill="none" xmlns="http://www.w3.org/2000/svg">
<path d="M6.5625 31.5C6.5625 19.7452 6.5625 13.8653 10.2139 10.2139C13.8653 6.5625 19.7426 6.5625 31.5 6.5625C43.2548 6.5625 49.1347 6.5625 52.7861 10.2139C56.4375 13.8653 56.4375 19.7426 56.4375 31.5C56.4375 43.2548 56.4375 49.1347 52.7861 52.7861C49.1347 56.4375 43.2574 56.4375 31.5 56.4375C19.7452 56.4375 13.8653 56.4375 10.2139 52.7861C6.5625 49.1347 6.5625 43.2574 6.5625 31.5Z" stroke="#5B251B" stroke-width="3" stroke-linecap="round" stroke-linejoin="round"/>
<path d="M45.9585 17.0625H45.9322M43.3125 31.5C43.3125 34.6329 42.068 37.6374 39.8527 39.8527C37.6374 42.068 34.6329 43.3125 31.5 43.3125C28.3671 43.3125 25.3626 42.068 23.1473 39.8527C20.932 37.6374 19.6875 34.6329 19.6875 31.5C19.6875 28.3671 20.932 25.3626 23.1473 23.1473C25.3626 20.932 28.3671 19.6875 31.5 19.6875C34.6329 19.6875 37.6374 20.932 39.8527 23.1473C42.068 25.3626 43.3125 28.3671 43.3125 31.5Z" stroke="#5B251B" stroke-width="3" stroke-linecap="round" stroke-linejoin="round"/>
</svg>
