<svg width="20" height="20" viewBox="0 0 20 20" fill="none" xmlns="http://www.w3.org/2000/svg">
<path d="M4.44434 7.77772L8.14804 2.22217M15.5554 7.77772L11.8517 2.22217" stroke="#F7F6F3" stroke-width="1.11111" stroke-linecap="round"/>
<path d="M2.24664 9.02083C2.21708 8.87338 2.21481 8.71945 2.24 8.57074C2.26519 8.42203 2.31718 8.28245 2.39201 8.16262C2.46684 8.04278 2.56255 7.94584 2.67186 7.87917C2.78116 7.81249 2.9012 7.77784 3.02283 7.77783H16.9782C17.0998 7.77787 17.2197 7.81252 17.329 7.87914C17.4382 7.94576 17.5339 8.0426 17.6087 8.16231C17.6835 8.28203 17.7355 8.42146 17.7607 8.57005C17.786 8.71863 17.7838 8.87245 17.7544 9.01983L16.3053 16.2628C16.2187 16.6955 16.0189 17.0796 15.7377 17.3541C15.4564 17.6286 15.1098 17.7778 14.7529 17.7778H5.24817C4.89129 17.7778 4.54467 17.6286 4.2634 17.3541C3.98212 17.0796 3.78234 16.6955 3.69579 16.2628L2.24664 9.02083Z" stroke="#F7F6F3" stroke-width="1.11111" stroke-linejoin="round"/>
</svg>
