<svg width="20" height="20" viewBox="0 0 20 20" fill="none" xmlns="http://www.w3.org/2000/svg">
<path d="M4.44434 7.77778L8.14804 2.22223M15.5554 7.77778L11.8517 2.22223" stroke="#111314" stroke-width="1.11111" stroke-linecap="round"/>
<path d="M2.24615 9.02077C2.2166 8.87332 2.21433 8.71939 2.23951 8.57068C2.2647 8.42197 2.31669 8.28239 2.39152 8.16256C2.46635 8.04272 2.56206 7.94578 2.67137 7.87911C2.78068 7.81243 2.90071 7.77777 3.02234 7.77777H16.9777C17.0993 7.77781 17.2192 7.81246 17.3285 7.87908C17.4377 7.9457 17.5334 8.04254 17.6082 8.16225C17.683 8.28196 17.735 8.4214 17.7603 8.56999C17.7855 8.71857 17.7834 8.87239 17.7539 9.01977L16.3048 16.2628C16.2182 16.6955 16.0185 17.0796 15.7372 17.3541C15.4559 17.6286 15.1093 17.7777 14.7524 17.7778H5.24769C4.89081 17.7777 4.54418 17.6286 4.26291 17.3541C3.98164 17.0796 3.78185 16.6955 3.69531 16.2628L2.24615 9.02077Z" stroke="#111314" stroke-width="1.11111" stroke-linejoin="round"/>
</svg>
