<svg width="20" height="20" viewBox="0 0 20 20" fill="none" xmlns="http://www.w3.org/2000/svg">
<path d="M4.44434 7.77778L8.14804 2.22223M15.5554 7.77778L11.8517 2.22223" stroke="#434D50" stroke-width="1.11111" stroke-linecap="round"/>
<path d="M2.24664 9.02077C2.21708 8.87332 2.21481 8.71939 2.24 8.57068C2.26519 8.42197 2.31718 8.28239 2.39201 8.16256C2.46684 8.04272 2.56255 7.94578 2.67186 7.87911C2.78116 7.81243 2.9012 7.77777 3.02283 7.77777H16.9782C17.0998 7.77781 17.2197 7.81246 17.329 7.87908C17.4382 7.9457 17.5339 8.04254 17.6087 8.16225C17.6835 8.28196 17.7355 8.4214 17.7607 8.56999C17.786 8.71857 17.7838 8.87239 17.7544 9.01977L16.3053 16.2628C16.2187 16.6955 16.0189 17.0796 15.7377 17.3541C15.4564 17.6286 15.1098 17.7777 14.7529 17.7778H5.24817C4.89129 17.7777 4.54467 17.6286 4.2634 17.3541C3.98212 17.0796 3.78234 16.6955 3.69579 16.2628L2.24664 9.02077Z" stroke="#434D50" stroke-width="1.11111" stroke-linejoin="round"/>
</svg>
