<svg width="171" height="132" viewBox="0 0 171 132" fill="none" xmlns="http://www.w3.org/2000/svg">
<g clip-path="url(#clip0_270_1361)">
<path d="M0.283255 74.2173H0L7.05916 57.6381L7.3202 57.5186L13.2686 74.2173H11.2636L9.4224 69.0067H2.52708L0.283255 74.2173ZM6.32603 60.1947L2.61872 68.7677H9.34742L6.32603 60.1947Z" fill="#434D50"/>
<path d="M15.3898 74.2174H15.0843L19.3553 65.7388L14.6816 57.6382H16.6644L20.7244 64.6495L24.2651 57.6382H24.5484L20.8883 64.9329L26.2701 74.2174H24.2873L19.5192 66L15.387 74.2174H15.3898Z" fill="#434D50"/>
<path d="M33.2604 74.2174H31.2998V57.8744H27.2148V57.6382H37.3648V57.8744H33.2576V74.2174H33.2604Z" fill="#434D50"/>
<path d="M49.1194 57.638V57.8742H41.6853V64.98H48.5779V65.2162H41.6853V73.9782H49.6415V74.2145H39.7275V57.6353H49.1222L49.1194 57.638Z" fill="#434D50"/>
<path d="M52.1191 57.8271C53.9436 57.7021 55.5571 57.6382 56.9567 57.6382C60.8445 57.6382 62.7884 58.9415 62.7884 61.5454C62.7884 62.6514 62.5218 63.6379 61.9859 64.505C61.4499 65.3748 60.5307 65.95 59.2255 66.2335L63.9464 74.2146H61.7498L57.1233 66.3752H54.0769V74.2146H52.1191V57.8244V57.8271ZM56.9567 57.8744C56.0431 57.8744 55.085 57.93 54.0769 58.0411V66.1418H57.5704C59.7892 66.0473 60.8973 64.53 60.8973 61.5954C60.8973 60.3949 60.5668 59.4751 59.9059 58.8359C59.245 58.1968 58.2619 57.8772 56.9567 57.8772V57.8744Z" fill="#434D50"/>
<path d="M75.0149 58.6329C73.582 58.0799 72.2324 57.8048 70.966 57.8048C69.6997 57.8048 68.7111 58.0744 68.003 58.6107C67.2948 59.147 66.9422 59.889 66.9422 60.8366C66.9422 61.9899 67.5392 62.8819 68.7361 63.5128C69.2721 63.7823 69.858 64.0296 70.494 64.2603C71.1299 64.4882 71.7714 64.7466 72.4184 65.0301C73.0627 65.3135 73.6542 65.6387 74.1902 65.9999C74.7261 66.364 75.1593 66.8642 75.4898 67.5033C75.8203 68.1425 75.9841 68.9567 75.9841 69.9432C75.9841 70.9298 75.7092 71.7718 75.1593 72.4665C74.6095 73.1613 73.943 73.6309 73.1654 73.8755C72.3851 74.12 71.477 74.2423 70.4384 74.2423C68.5028 74.2423 66.8505 73.7615 65.4814 72.7972L65.5981 72.6083C66.1174 73.0195 66.7894 73.3558 67.617 73.6142C68.4445 73.8727 69.2887 74.0061 70.1552 74.0061C71.4298 74.0061 72.5184 73.7115 73.4237 73.1168C74.329 72.5249 74.7817 71.6523 74.7817 70.499C74.7817 69.2374 74.1846 68.2481 72.9877 67.5394C72.4517 67.2254 71.8658 66.9309 71.2299 66.6641C70.5939 66.3945 69.9524 66.1166 69.3054 65.8221C68.6611 65.5303 68.0696 65.2024 67.5337 64.8383C66.3368 64.0491 65.7397 62.9292 65.7397 61.4758C65.7397 60.3225 66.1257 59.3888 66.8977 58.669C67.6697 57.9521 68.8305 57.5908 70.3801 57.5908C71.9297 57.5908 73.507 57.8604 75.1121 58.3967L75.0177 58.6329H75.0149Z" fill="#434D50"/>
<path d="M94.2296 58.6329C92.7967 58.0799 91.447 57.8048 90.1807 57.8048C88.9144 57.8048 87.9258 58.0744 87.2177 58.6107C86.5095 59.147 86.1541 59.889 86.1541 60.8366C86.1541 61.9899 86.7511 62.8819 87.948 63.5128C88.484 63.7823 89.0699 64.0296 89.7059 64.2603C90.3418 64.4882 90.9833 64.7466 91.6303 65.0301C92.2746 65.3135 92.8661 65.6387 93.4021 65.9999C93.938 66.364 94.3712 66.8642 94.6989 67.5033C95.0294 68.1425 95.196 68.9567 95.196 69.9432C95.196 70.9298 94.9211 71.7718 94.3712 72.4665C93.8214 73.1613 93.1549 73.6309 92.3773 73.8755C91.5998 74.12 90.6889 74.2423 89.6503 74.2423C87.7147 74.2423 86.0624 73.7615 84.6934 72.7972L84.8128 72.6083C85.3321 73.0195 86.0041 73.3558 86.8317 73.6142C87.6564 73.8755 88.5034 74.0061 89.3698 74.0061C90.6445 74.0061 91.7331 73.7115 92.6384 73.1168C93.5437 72.5249 93.9963 71.6523 93.9963 70.499C93.9963 69.2374 93.3993 68.2481 92.2024 67.5394C91.6664 67.2254 91.0805 66.9309 90.4445 66.6641C89.8086 66.3945 89.1671 66.1166 88.5201 65.8221C87.8758 65.5303 87.2843 65.2024 86.7483 64.8383C85.5515 64.0491 84.9544 62.9292 84.9544 61.4758C84.9544 60.3225 85.3404 59.3888 86.1124 58.669C86.8844 57.9521 88.0452 57.5908 89.5948 57.5908C91.1444 57.5908 92.7217 57.8604 94.3268 58.3967L94.2324 58.6329H94.2296Z" fill="#434D50"/>
<path d="M102.538 74.2174H100.58V57.8744H96.4951V57.6382H106.645V57.8744H102.538V74.2174Z" fill="#434D50"/>
<path d="M120.358 57.638H120.667V67.1115C120.667 69.5903 120.178 71.4105 119.203 72.5693C118.228 73.7309 116.954 74.3089 115.379 74.3089C114.388 74.3089 113.546 74.2172 112.852 74.0366C112.161 73.856 111.508 73.5197 110.894 73.0306C109.636 72.0524 109.006 70.0794 109.006 67.1087V57.6353H110.964V67.0865C110.964 69.9599 111.397 71.8801 112.261 72.8417C112.702 73.3169 113.16 73.6392 113.641 73.8115C114.121 73.9838 114.699 74.0727 115.376 74.0727C116.887 74.0727 118.095 73.5169 119 72.4026C119.906 71.2882 120.358 69.518 120.358 67.0865V57.6353V57.638Z" fill="#434D50"/>
<path d="M125.505 57.6605C126.196 57.63 126.876 57.6133 127.546 57.6133C128.215 57.6133 128.923 57.6855 129.67 57.8273C130.417 57.969 131.156 58.233 131.889 58.6193C132.622 59.0055 133.241 59.503 133.752 60.1116C134.263 60.7201 134.677 61.5205 134.991 62.5153C135.305 63.5102 135.463 64.719 135.463 66.1391C135.463 67.5591 135.23 68.8347 134.766 69.9629C134.302 71.0912 133.669 71.9554 132.866 72.5557C131.309 73.7256 129.428 74.3092 127.226 74.3092C126.454 74.3092 125.643 74.2786 124.796 74.2147H123.616V57.6605H125.505ZM125.574 74.0257C125.904 74.0563 126.321 74.073 126.824 74.073C127.326 74.073 127.704 74.0646 127.957 74.048C128.209 74.0341 128.554 73.9646 128.995 73.8479C129.437 73.7284 129.845 73.5672 130.223 73.3616C130.6 73.1559 130.998 72.853 131.414 72.4501C131.831 72.0471 132.189 71.5692 132.489 71.0161C133.166 69.7212 133.505 68.0316 133.505 65.9473C133.505 64.4634 133.325 63.1795 132.961 62.0985C132.6 61.0175 132.186 60.2144 131.722 59.6947C131.259 59.1723 130.695 58.7582 130.034 58.4525C129.373 58.1468 128.845 57.9662 128.451 57.919C128.057 57.8717 127.601 57.8467 127.082 57.8467C126.563 57.8467 126.06 57.8717 125.571 57.919V74.0257H125.574Z" fill="#434D50"/>
<path d="M137.826 57.8744V57.6382H142.028V57.8744H140.87V73.9784H142.028V74.2146H137.826V73.9784H138.912V57.8744H137.826Z" fill="#434D50"/>
<path d="M144.388 66.3305C144.388 63.4571 145.085 61.2728 146.476 59.7805C147.867 58.2882 149.658 57.5435 151.847 57.5435C154.035 57.5435 155.776 58.1909 157.076 59.4859C158.373 60.7809 159.023 62.8485 159.023 65.6913C159.023 68.5342 158.331 70.6823 156.945 72.1329C155.56 73.5863 153.713 74.3116 151.4 74.3116C149.4 74.3116 147.765 73.7364 146.49 72.5831C145.829 71.9829 145.312 71.1492 144.943 70.0848C144.574 69.0205 144.388 67.7672 144.388 66.3305ZM151.777 57.7797C150.189 57.7797 148.886 58.4911 147.87 59.9111C146.856 61.3312 146.348 63.4154 146.348 66.1637C146.348 68.9121 146.829 70.9157 147.79 72.1802C148.75 73.4446 150.028 74.0754 151.625 74.0754C153.221 74.0754 154.529 73.3612 155.543 71.9328C156.559 70.5045 157.065 68.4286 157.065 65.7024C157.065 62.9763 156.582 60.9782 155.612 59.6999C154.643 58.4216 153.366 57.7824 151.777 57.7824V57.7797Z" fill="#434D50"/>
<path d="M105.046 132C90.4446 132 76.6095 127.323 65.0377 118.475C53.8352 109.907 45.532 97.7634 41.6553 84.2799L42.1885 84.1271C50.1946 111.989 76.043 131.447 105.046 131.447C141.108 131.447 170.445 102.09 170.445 66.0028C170.445 29.9154 141.108 0.555789 105.046 0.555789C76.043 0.555789 50.1946 20.014 42.1885 47.8757L41.6553 47.7229C45.532 34.2394 53.8352 22.0954 65.0377 13.5279C76.6095 4.67697 90.4446 0 105.046 0C122.663 0 139.226 6.864 151.683 19.3304C164.141 31.7967 171 48.3704 171 66C171 83.6296 164.141 100.203 151.683 112.67C139.226 125.136 122.663 132 105.046 132Z" fill="#434D50"/>
</g>
<defs>
<clipPath id="clip0_270_1361">
<rect width="171" height="132" fill="white"/>
</clipPath>
</defs>
</svg>
