<svg width="438" height="338" viewBox="0 0 438 338" fill="none" xmlns="http://www.w3.org/2000/svg">
<g clip-path="url(#clip0_960_338)">
<path d="M0.793664 190.042H0.0683594L18.1441 147.589L18.8125 147.283L34.0439 190.042H28.9099L24.1954 176.699H6.53922L0.793664 190.042ZM16.2668 154.135L6.77387 176.087H24.0034L16.2668 154.135Z" fill="#F7F6F3"/>
<path d="M39.4763 190.041H38.6942L49.6306 168.331L37.6631 147.589H42.7402L53.1363 165.542L62.2026 147.589H62.9279L53.5558 166.268L67.3366 190.041H62.2594L50.0502 169L39.4692 190.041H39.4763Z" fill="#F7F6F3"/>
<path d="M85.2352 190.041H80.2149V148.193H69.7549V147.589H95.745V148.193H85.2281V190.041H85.2352Z" fill="#F7F6F3"/>
<path d="M125.845 147.589V148.194H106.809V166.389H124.458V166.993H106.809V189.429H127.182V190.034H101.796V147.582H125.852L125.845 147.589Z" fill="#F7F6F3"/>
<path d="M133.524 148.072C138.196 147.752 142.328 147.589 145.911 147.589C155.867 147.589 160.844 150.926 160.844 157.593C160.844 160.426 160.162 162.952 158.789 165.172C157.417 167.399 155.063 168.872 151.721 169.598L163.809 190.034H158.185L146.338 169.961H138.538V190.034H133.524V148.065V148.072ZM145.911 148.193C143.572 148.193 141.119 148.336 138.538 148.62V169.363H147.483C153.165 169.121 156.002 165.236 156.002 157.722C156.002 154.647 155.156 152.292 153.463 150.656C151.771 149.019 149.254 148.201 145.911 148.201V148.193Z" fill="#F7F6F3"/>
<path d="M192.153 150.136C188.484 148.72 185.028 148.015 181.786 148.015C178.543 148.015 176.012 148.706 174.198 150.079C172.385 151.452 171.482 153.352 171.482 155.779C171.482 158.732 173.011 161.016 176.076 162.631C177.448 163.322 178.948 163.955 180.577 164.545C182.205 165.129 183.848 165.791 185.505 166.516C187.154 167.242 188.669 168.075 190.041 169C191.414 169.932 192.523 171.213 193.369 172.85C194.215 174.486 194.635 176.571 194.635 179.097C194.635 181.623 193.931 183.779 192.523 185.558C191.115 187.337 189.408 188.54 187.417 189.166C185.419 189.792 183.094 190.105 180.435 190.105C175.478 190.105 171.247 188.874 167.742 186.405L168.04 185.921C169.37 186.974 171.091 187.835 173.21 188.497C175.329 189.159 177.491 189.5 179.709 189.5C182.973 189.5 185.761 188.746 188.079 187.223C190.397 185.708 191.556 183.473 191.556 180.52C191.556 177.29 190.027 174.757 186.962 172.942C185.59 172.138 184.089 171.384 182.461 170.701C180.833 170.01 179.19 169.299 177.533 168.544C175.884 167.797 174.369 166.958 172.997 166.026C169.932 164.005 168.403 161.137 168.403 157.415C168.403 154.462 169.391 152.071 171.368 150.228C173.345 148.393 176.317 147.468 180.285 147.468C184.253 147.468 188.292 148.158 192.402 149.531L192.16 150.136H192.153Z" fill="#F7F6F3"/>
<path d="M241.353 150.136C237.684 148.72 234.228 148.015 230.986 148.015C227.743 148.015 225.212 148.706 223.398 150.079C221.585 151.452 220.675 153.352 220.675 155.779C220.675 158.732 222.204 161.016 225.268 162.631C226.641 163.322 228.141 163.955 229.77 164.545C231.398 165.129 233.041 165.791 234.697 166.516C236.347 167.242 237.862 168.075 239.234 169C240.607 169.932 241.716 171.213 242.555 172.85C243.401 174.486 243.828 176.571 243.828 179.097C243.828 181.623 243.124 183.779 241.716 185.558C240.308 187.337 238.601 188.54 236.61 189.166C234.619 189.792 232.287 190.105 229.627 190.105C224.671 190.105 220.44 188.874 216.935 186.405L217.24 185.921C218.57 186.974 220.291 187.835 222.41 188.497C224.522 189.166 226.691 189.5 228.909 189.5C232.173 189.5 234.961 188.746 237.279 187.223C239.597 185.708 240.756 183.473 240.756 180.52C240.756 177.29 239.227 174.757 236.162 172.942C234.79 172.138 233.289 171.384 231.661 170.701C230.033 170.01 228.39 169.299 226.733 168.544C225.084 167.797 223.569 166.958 222.197 166.026C219.132 164.005 217.603 161.137 217.603 157.415C217.603 154.462 218.591 152.071 220.568 150.228C222.545 148.393 225.517 147.468 229.485 147.468C233.453 147.468 237.492 148.158 241.602 149.531L241.36 150.136H241.353Z" fill="#F7F6F3"/>
<path d="M262.628 190.041H257.615V148.193H247.155V147.589H273.145V148.193H262.628V190.041Z" fill="#F7F6F3"/>
<path d="M308.259 147.589H309.048V171.846C309.048 178.194 307.797 182.855 305.301 185.822C302.805 188.796 299.541 190.276 295.509 190.276C292.971 190.276 290.816 190.041 289.038 189.579C287.268 189.116 285.597 188.255 284.025 187.003C280.804 184.498 279.19 179.446 279.19 171.839V147.582H284.203V171.782C284.203 179.14 285.312 184.057 287.524 186.519C288.654 187.736 289.828 188.561 291.058 189.003C292.288 189.444 293.767 189.671 295.502 189.671C299.37 189.671 302.464 188.248 304.782 185.395C307.1 182.541 308.259 178.009 308.259 171.782V147.582V147.589Z" fill="#F7F6F3"/>
<path d="M321.435 147.646C323.206 147.567 324.948 147.525 326.661 147.525C328.375 147.525 330.188 147.71 332.101 148.073C334.014 148.435 335.905 149.111 337.783 150.101C339.66 151.09 341.246 152.363 342.554 153.922C343.863 155.48 344.922 157.529 345.726 160.077C346.529 162.624 346.934 165.72 346.934 169.356C346.934 172.992 346.337 176.258 345.15 179.147C343.962 182.036 342.341 184.249 340.286 185.786C336.297 188.782 331.483 190.276 325.844 190.276C323.867 190.276 321.791 190.198 319.622 190.034H316.6V147.646H321.435ZM321.613 189.551C322.459 189.629 323.526 189.671 324.813 189.671C326.1 189.671 327.067 189.65 327.714 189.607C328.361 189.572 329.243 189.394 330.373 189.095C331.504 188.789 332.549 188.376 333.516 187.85C334.483 187.323 335.5 186.548 336.567 185.516C337.633 184.484 338.551 183.26 339.319 181.844C341.054 178.528 341.921 174.202 341.921 168.865C341.921 165.065 341.459 161.778 340.528 159.01C339.603 156.241 338.544 154.185 337.356 152.854C336.169 151.517 334.725 150.456 333.033 149.674C331.34 148.891 329.989 148.428 328.98 148.307C327.97 148.186 326.804 148.122 325.474 148.122C324.144 148.122 322.857 148.186 321.606 148.307V189.551H321.613Z" fill="#F7F6F3"/>
<path d="M352.986 148.193V147.589H363.745V148.193H360.779V189.429H363.745V190.034H352.986V189.429H355.766V148.193H352.986Z" fill="#F7F6F3"/>
<path d="M369.789 169.847C369.789 162.489 371.574 156.896 375.136 153.075C378.699 149.254 383.285 147.347 388.889 147.347C394.492 147.347 398.951 149.005 402.278 152.321C405.599 155.637 407.263 160.931 407.263 168.21C407.263 175.49 405.493 180.99 401.944 184.705C398.396 188.426 393.667 190.283 387.744 190.283C382.624 190.283 378.436 188.81 375.172 185.857C373.48 184.32 372.157 182.186 371.211 179.46C370.265 176.735 369.789 173.526 369.789 169.847ZM388.711 147.952C384.644 147.952 381.309 149.773 378.706 153.409C376.111 157.045 374.809 162.382 374.809 169.42C374.809 176.457 376.039 181.588 378.5 184.826C380.96 188.063 384.231 189.679 388.32 189.679C392.409 189.679 395.758 187.85 398.353 184.192C400.956 180.535 402.25 175.219 402.25 168.239C402.25 161.258 401.013 156.142 398.531 152.869C396.049 149.595 392.778 147.959 388.711 147.959V147.952Z" fill="#F7F6F3"/>
<path d="M269.049 338C231.661 338 196.234 326.024 166.604 303.367C137.919 281.429 116.657 250.333 106.73 215.808L108.096 215.416C128.596 286.759 194.784 336.584 269.049 336.584C361.391 336.584 436.509 261.413 436.509 169.007C436.509 76.6015 361.391 1.42316 269.049 1.42316C194.784 1.42316 128.596 51.2479 108.096 122.591L106.73 122.199C116.657 87.6736 137.919 56.5776 166.604 34.6397C196.234 11.9759 231.661 0 269.049 0C314.16 0 356.57 17.576 388.469 49.4974C420.368 81.4189 437.932 123.857 437.932 169C437.932 214.143 420.368 256.581 388.469 288.503C356.57 320.424 314.16 338 269.049 338Z" fill="#F7F6F3"/>
</g>
<defs>
<clipPath id="clip0_960_338">
<rect width="437.864" height="338" fill="white" transform="translate(0.0683594)"/>
</clipPath>
</defs>
</svg>
