<svg width="171" height="132" viewBox="0 0 171 132" fill="none" xmlns="http://www.w3.org/2000/svg">
<g clip-path="url(#clip0_457_1039)">
<path d="M0.283255 74.2173H0L7.05916 57.6381L7.3202 57.5186L13.2686 74.2173H11.2636L9.4224 69.0068H2.52708L0.283255 74.2173ZM6.32603 60.1948L2.61872 68.7678H9.34742L6.32603 60.1948Z" fill="#5B251B"/>
<path d="M15.3901 74.2173H15.0847L19.3557 65.7388L14.682 57.6381H16.6648L20.7248 64.6494L24.2655 57.6381H24.5487L20.8886 64.9329L26.2705 74.2173H24.2877L19.5196 66L15.3874 74.2173H15.3901Z" fill="#5B251B"/>
<path d="M33.2603 74.2173H31.2997V57.8744H27.2147V57.6381H37.3647V57.8744H33.2575V74.2173H33.2603Z" fill="#5B251B"/>
<path d="M49.1198 57.6381V57.8744H41.6857V64.9801H48.5782V65.2163H41.6857V73.9783H49.6418V74.2146H39.7279V57.6354H49.1225L49.1198 57.6381Z" fill="#5B251B"/>
<path d="M52.1189 57.8271C53.9434 57.7021 55.5568 57.6381 56.9565 57.6381C60.8443 57.6381 62.7882 58.9415 62.7882 61.5453C62.7882 62.6514 62.5216 63.6379 61.9856 64.5049C61.4497 65.3747 60.5305 65.95 59.2253 66.2334L63.9462 74.2146H61.7496L57.1231 66.3752H54.0767V74.2146H52.1189V57.8243V57.8271ZM56.9565 57.8744C56.0428 57.8744 55.0847 57.9299 54.0767 58.0411V66.1417H57.5702C59.789 66.0472 60.897 64.5299 60.897 61.5954C60.897 60.3949 60.5666 59.475 59.9056 58.8359C59.2447 58.1967 58.2616 57.8771 56.9565 57.8771V57.8744Z" fill="#5B251B"/>
<path d="M75.0154 58.633C73.5825 58.08 72.2328 57.8049 70.9665 57.8049C69.7002 57.8049 68.7116 58.0744 68.0035 58.6108C67.2953 59.1471 66.9426 59.8891 66.9426 60.8367C66.9426 61.99 67.5397 62.882 68.7366 63.5128C69.2726 63.7824 69.8585 64.0297 70.4944 64.2604C71.1304 64.4883 71.7719 64.7467 72.4189 65.0302C73.0632 65.3136 73.6547 65.6387 74.1906 66C74.7266 66.364 75.1598 66.8643 75.4903 67.5034C75.8207 68.1426 75.9846 68.9568 75.9846 69.9433C75.9846 70.9299 75.7097 71.7719 75.1598 72.4666C74.61 73.1614 73.9435 73.631 73.1659 73.8755C72.3856 74.1201 71.4775 74.2424 70.4389 74.2424C68.5033 74.2424 66.851 73.7616 65.4819 72.7973L65.5986 72.6083C66.1179 73.0196 66.7899 73.3559 67.6175 73.6143C68.445 73.8728 69.2892 74.0062 70.1556 74.0062C71.4303 74.0062 72.5189 73.7116 73.4242 73.1169C74.3295 72.525 74.7821 71.6524 74.7821 70.4991C74.7821 69.2375 74.1851 68.2482 72.9882 67.5395C72.4522 67.2255 71.8663 66.931 71.2303 66.6642C70.5944 66.3946 69.9529 66.1167 69.3059 65.8222C68.6616 65.5304 68.0701 65.2024 67.5341 64.8384C66.3373 64.0492 65.7402 62.9293 65.7402 61.4759C65.7402 60.3226 66.1262 59.3889 66.8982 58.6691C67.6702 57.9522 68.831 57.5909 70.3806 57.5909C71.9302 57.5909 73.5075 57.8605 75.1126 58.3968L75.0182 58.633H75.0154Z" fill="#5B251B"/>
<path d="M94.2295 58.633C92.7966 58.08 91.4469 57.8049 90.1806 57.8049C88.9143 57.8049 87.9257 58.0744 87.2175 58.6108C86.5094 59.1471 86.1539 59.8891 86.1539 60.8367C86.1539 61.99 86.751 62.882 87.9479 63.5128C88.4839 63.7824 89.0698 64.0297 89.7057 64.2604C90.3417 64.4883 90.9832 64.7467 91.6302 65.0302C92.2745 65.3136 92.866 65.6387 93.4019 66C93.9379 66.364 94.3711 66.8643 94.6988 67.5034C95.0293 68.1426 95.1959 68.9568 95.1959 69.9433C95.1959 70.9299 94.921 71.7719 94.3711 72.4666C93.8213 73.1614 93.1548 73.631 92.3772 73.8755C91.5997 74.1201 90.6888 74.2424 89.6502 74.2424C87.7146 74.2424 86.0623 73.7616 84.6932 72.7973L84.8126 72.6083C85.3319 73.0196 86.004 73.3559 86.8315 73.6143C87.6563 73.8755 88.5033 74.0062 89.3697 74.0062C90.6444 74.0062 91.733 73.7116 92.6383 73.1169C93.5436 72.525 93.9962 71.6524 93.9962 70.4991C93.9962 69.2375 93.3992 68.2482 92.2023 67.5395C91.6663 67.2255 91.0804 66.931 90.4444 66.6642C89.8085 66.3946 89.167 66.1167 88.52 65.8222C87.8757 65.5304 87.2842 65.2024 86.7482 64.8384C85.5513 64.0492 84.9543 62.9293 84.9543 61.4759C84.9543 60.3226 85.3403 59.3889 86.1123 58.6691C86.8843 57.9522 88.0451 57.5909 89.5947 57.5909C91.1442 57.5909 92.7216 57.8605 94.3267 58.3968L94.2323 58.633H94.2295Z" fill="#5B251B"/>
<path d="M102.538 74.2173H100.581V57.8744H96.4956V57.6381H106.646V57.8744H102.538V74.2173Z" fill="#5B251B"/>
<path d="M120.358 57.6381H120.667V67.1116C120.667 69.5904 120.178 71.4106 119.203 72.5694C118.228 73.731 116.954 74.309 115.379 74.309C114.388 74.309 113.546 74.2173 112.852 74.0367C112.161 73.8561 111.508 73.5198 110.894 73.0307C109.636 72.0525 109.006 70.0795 109.006 67.1088V57.6354H110.964V67.0866C110.964 69.96 111.397 71.8802 112.261 72.8418C112.702 73.317 113.16 73.6393 113.641 73.8116C114.121 73.9839 114.699 74.0728 115.376 74.0728C116.887 74.0728 118.095 73.5171 119 72.4027C119.906 71.2883 120.358 69.5181 120.358 67.0866V57.6354V57.6381Z" fill="#5B251B"/>
<path d="M125.504 57.6604C126.196 57.6298 126.876 57.6131 127.545 57.6131C128.215 57.6131 128.923 57.6854 129.67 57.8271C130.417 57.9688 131.155 58.2328 131.889 58.6191C132.622 59.0054 133.241 59.5028 133.752 60.1114C134.263 60.72 134.677 61.5203 134.99 62.5152C135.304 63.5101 135.463 64.7189 135.463 66.1389C135.463 67.559 135.229 68.8345 134.766 69.9628C134.302 71.091 133.669 71.9553 132.866 72.5555C131.308 73.7255 129.428 74.309 127.226 74.309C126.454 74.309 125.643 74.2785 124.796 74.2146H123.616V57.6604H125.504ZM125.574 74.0256C125.904 74.0562 126.321 74.0728 126.823 74.0728C127.326 74.0728 127.704 74.0645 127.956 74.0478C128.209 74.0339 128.553 73.9645 128.995 73.8477C129.436 73.7282 129.845 73.5671 130.222 73.3614C130.6 73.1558 130.997 72.8529 131.414 72.4499C131.83 72.047 132.188 71.569 132.488 71.016C133.166 69.721 133.505 68.0314 133.505 65.9472C133.505 64.4632 133.324 63.1794 132.96 62.0984C132.599 61.0173 132.186 60.2142 131.722 59.6946C131.258 59.1721 130.694 58.7581 130.034 58.4524C129.373 58.1467 128.845 57.9661 128.451 57.9188C128.056 57.8716 127.601 57.8466 127.082 57.8466C126.562 57.8466 126.06 57.8716 125.571 57.9188V74.0256H125.574Z" fill="#5B251B"/>
<path d="M137.826 57.8744V57.6381H142.027V57.8744H140.869V73.9784H142.027V74.2146H137.826V73.9784H138.912V57.8744H137.826Z" fill="#5B251B"/>
<path d="M144.388 66.3307C144.388 63.4573 145.085 61.273 146.476 59.7807C147.868 58.2884 149.659 57.5437 151.847 57.5437C154.035 57.5437 155.776 58.1912 157.076 59.4862C158.373 60.7811 159.023 62.8487 159.023 65.6915C159.023 68.5344 158.331 70.6825 156.946 72.1331C155.56 73.5865 153.713 74.3118 151.4 74.3118C149.4 74.3118 147.765 73.7366 146.49 72.5833C145.829 71.9831 145.313 71.1494 144.943 70.0851C144.574 69.0207 144.388 67.7674 144.388 66.3307ZM151.778 57.7799C150.189 57.7799 148.887 58.4913 147.87 59.9113C146.857 61.3314 146.349 63.4156 146.349 66.164C146.349 68.9123 146.829 70.916 147.79 72.1804C148.751 73.4448 150.028 74.0756 151.625 74.0756C153.222 74.0756 154.53 73.3614 155.543 71.9331C156.56 70.5047 157.065 68.4288 157.065 65.7027C157.065 62.9765 156.582 60.9784 155.613 59.7001C154.643 58.4218 153.366 57.7827 151.778 57.7827V57.7799Z" fill="#5B251B"/>
<path d="M105.046 132C90.4445 132 76.6094 127.323 65.0376 118.475C53.8351 109.907 45.5319 97.7634 41.6552 84.2799L42.1883 84.1271C50.1945 111.989 76.0429 131.447 105.046 131.447C141.108 131.447 170.445 102.09 170.445 66.0028C170.445 29.9154 141.108 0.555789 105.046 0.555789C76.0429 0.555789 50.1945 20.014 42.1883 47.8757L41.6552 47.7229C45.5319 34.2394 53.8351 22.0954 65.0376 13.5279C76.6094 4.67697 90.4445 0 105.046 0C122.663 0 139.225 6.864 151.683 19.3304C164.141 31.7967 171 48.3704 171 66C171 83.6296 164.141 100.203 151.683 112.67C139.225 125.136 122.663 132 105.046 132Z" fill="#5B251B"/>
</g>
<defs>
<clipPath id="clip0_457_1039">
<rect width="171" height="132" fill="white"/>
</clipPath>
</defs>
</svg>
