<svg width="68" height="33" viewBox="0 0 68 33" fill="none" xmlns="http://www.w3.org/2000/svg">
<path d="M2 2C6.25354 2 10.8712 7.55297 10.8712 11.7136C10.8712 16.7642 13.5 23.0519 11.6539 28.2529C10.7239 30.8731 8.26317 31.7206 5.88476 30.3532C3.20812 28.8142 4.90777 24.5775 7.74017 24.5775C8.95138 24.5775 10.1839 24.5099 11.393 24.5775C12.6707 24.6489 13.6302 25.9237 14.7849 26.1819C17.3234 26.7495 19.1957 28.2529 21.8297 28.2529C35.3571 28.2529 48.5176 29.1405 61.7499 26.1819C62.7501 25.9582 65.7742 26.5064 64.823 26.1235C63.833 25.7251 62.6768 24.8331 61.7499 24.315C61.3608 24.0975 59.0268 22.8786 58.9088 23.294C58.8075 23.6509 59.8123 26.2753 60.0395 26.5611C60.695 27.3855 59.9164 29.0626 60.5613 29.7114C60.6417 29.7923 61.7871 27.9047 62.3008 27.757C63.2308 27.4897 63.9336 26.8604 64.8809 26.6486C67.4602 26.0719 64.8797 25.6268 64.0982 25.1026" stroke="#5B251B" stroke-width="3" stroke-linecap="round"/>
</svg>
