<svg width="63" height="63" viewBox="0 0 63 63" fill="none" xmlns="http://www.w3.org/2000/svg">
<path d="M55.125 21V42C55.125 45.481 53.7422 48.8194 51.2808 51.2808C48.8194 53.7422 45.481 55.125 42 55.125H21C17.519 55.125 14.1806 53.7422 11.7192 51.2808C9.25781 48.8194 7.875 45.481 7.875 42V21C7.875 17.519 9.25781 14.1806 11.7192 11.7192C14.1806 9.25781 17.519 7.875 21 7.875H42C45.481 7.875 48.8194 9.25781 51.2808 11.7192C53.7422 14.1806 55.125 17.519 55.125 21Z" stroke="#5B251B" stroke-width="3" stroke-linecap="round" stroke-linejoin="round"/>
<path d="M26.25 31.5C24.6925 31.5 23.1699 31.9619 21.8749 32.8272C20.5799 33.6925 19.5705 34.9224 18.9745 36.3614C18.3784 37.8003 18.2225 39.3837 18.5263 40.9113C18.8302 42.4389 19.5802 43.8421 20.6815 44.9435C21.7829 46.0448 23.1861 46.7948 24.7137 47.0987C26.2413 47.4025 27.8247 47.2466 29.2636 46.6506C30.7026 46.0545 31.9325 45.0452 32.7978 43.7501C33.6631 42.4551 34.125 40.9325 34.125 39.375V15.75C34.9991 18.375 38.325 23.625 44.625 23.625" stroke="#5B251B" stroke-width="3" stroke-linecap="round" stroke-linejoin="round"/>
</svg>
